<svg width="43" height="42" viewBox="0 0 43 42" fill="none" xmlns="http://www.w3.org/2000/svg">
<rect x="7.5" y="5.25" width="28" height="31.5" rx="2" fill="#C5D8D1"/>
<path d="M15.375 11.375L27.625 11.375" stroke="#013743" stroke-linecap="round"/>
<path d="M15.375 16.625L22.375 16.625" stroke="#013743" stroke-linecap="round"/>
<path d="M15.375 21.875L25.875 21.875" stroke="#013743" stroke-linecap="round"/>
<path d="M7.5 33.25C7.5 31.8455 7.5 31.1433 7.83706 30.6389C7.98298 30.4205 8.17048 30.233 8.38886 30.0871C8.89331 29.75 9.59554 29.75 11 29.75H31.5C33.3856 29.75 34.3284 29.75 34.9142 29.1642C35.5 28.5784 35.5 27.6356 35.5 25.75V24.5V32.75C35.5 34.6356 35.5 35.5784 34.9142 36.1642C34.3284 36.75 33.3856 36.75 31.5 36.75H11C9.59554 36.75 8.89331 36.75 8.38886 36.4129C8.17048 36.267 7.98298 36.0795 7.83706 35.8611C7.5 35.3567 7.5 34.6545 7.5 33.25Z" fill="#013743"/>
</svg>
