<svg width="45" height="43" viewBox="0 0 45 43" fill="none" xmlns="http://www.w3.org/2000/svg">
<path fill-rule="evenodd" clip-rule="evenodd" d="M14.4375 7.16663H13.625C9.85376 7.16663 7.96815 7.16663 6.79657 8.3382C5.625 9.50977 5.625 11.3954 5.625 15.1666V17.4166C5.625 17.6523 5.625 17.7702 5.69822 17.8434C5.77145 17.9166 5.8893 17.9166 6.125 17.9166H38.875C39.1107 17.9166 39.2286 17.9166 39.3018 17.8434C39.375 17.7702 39.375 17.6523 39.375 17.4166V15.1666C39.375 11.3954 39.375 9.50977 38.2034 8.3382C37.0319 7.16663 35.1462 7.16663 31.375 7.16663H30.5625L30.5625 11.6458C30.5625 12.4742 29.8909 13.1458 29.0625 13.1458C28.2341 13.1458 27.5625 12.4742 27.5625 11.6458L27.5625 7.16663H17.4375L17.4375 11.6458C17.4375 12.4742 16.7659 13.1458 15.9375 13.1458C15.1091 13.1458 14.4375 12.4742 14.4375 11.6458L14.4375 7.16663Z" fill="#013743"/>
<path d="M5.625 20.2084C5.625 19.9727 5.625 19.8548 5.69822 19.7816C5.77145 19.7084 5.8893 19.7084 6.125 19.7084H38.875C39.1107 19.7084 39.2286 19.7084 39.3018 19.7816C39.375 19.8548 39.375 19.9727 39.375 20.2084V27.8334C39.375 31.6046 39.375 33.4902 38.2034 34.6618C37.0319 35.8334 35.1462 35.8334 31.375 35.8334H13.625C9.85376 35.8334 7.96815 35.8334 6.79657 34.6618C5.625 33.4902 5.625 31.6046 5.625 27.8334V20.2084Z" fill="#C5D8D1"/>
<path d="M15.9375 4.47913L15.9375 11.6458" stroke="#013743" stroke-linecap="round"/>
<path d="M29.0625 4.47913L29.0625 11.6458" stroke="#013743" stroke-linecap="round"/>
</svg>
