<svg width="25" height="25" viewBox="0 0 25 25" fill="none" xmlns="http://www.w3.org/2000/svg">
<circle cx="12.5" cy="12.5" r="12.5" fill="#145166"/>
<path d="M10 14.1666L6.66667 10.8333L3.33333 14.1666" stroke="#F4F5E9" stroke-width="2"/>
<path d="M9.58337 7.4481C10.6955 6.80605 11.9883 6.54888 13.2614 6.71649C14.5346 6.8841 15.7168 7.46712 16.6248 8.37513C17.5328 9.28314 18.1159 10.4654 18.2835 11.7385C18.4511 13.0116 18.1939 14.3045 17.5519 15.4166C16.9098 16.5287 15.9187 17.3978 14.7324 17.8892C13.546 18.3806 12.2306 18.4668 10.9903 18.1345C9.7499 17.8021 8.65387 17.0698 7.87215 16.051C7.09043 15.0323 6.66671 13.784 6.66671 12.4999" stroke="#F4F5E9" stroke-width="2" stroke-linecap="round"/>
</svg>
