<svg width="43" height="43" viewBox="0 0 43 43" fill="none" xmlns="http://www.w3.org/2000/svg">
<path d="M7.61456 21.5428C7.61456 20.5337 7.61456 20.0292 7.83623 19.5984C8.05789 19.1677 8.46846 18.8744 9.28961 18.2879L20.5615 10.2366C21.1228 9.83563 21.4035 9.63515 21.7239 9.63515C22.0444 9.63515 22.3251 9.83563 22.8864 10.2366L34.1583 18.2879C34.9794 18.8744 35.39 19.1677 35.6116 19.5984C35.8333 20.0292 35.8333 20.5337 35.8333 21.5428V35.625C35.8333 36.5678 35.8333 37.0392 35.5404 37.3321C35.2475 37.625 34.7761 37.625 33.8333 37.625H9.61456C8.67175 37.625 8.20035 37.625 7.90746 37.3321C7.61456 37.0392 7.61456 36.5678 7.61456 35.625V21.5428Z" fill="#C5D8D1"/>
<path d="M3.58331 22.9022C3.58331 23.1691 3.58331 23.3025 3.66741 23.3437C3.75151 23.3848 3.85684 23.3029 4.0675 23.139L20.4961 10.3613C21.0859 9.9025 21.3808 9.67311 21.7239 9.67311C22.067 9.67311 22.362 9.9025 22.9518 10.3613L39.3804 23.139C39.591 23.3029 39.6964 23.3848 39.7805 23.3437C39.8646 23.3025 39.8646 23.1691 39.8646 22.9022V20.4625C39.8646 19.9822 39.8646 19.742 39.7629 19.5341C39.6612 19.3262 39.4716 19.1787 39.0924 18.8838L22.9518 6.33002C22.362 5.87125 22.067 5.64186 21.7239 5.64186C21.3808 5.64186 21.0859 5.87125 20.4961 6.33002L4.35543 18.8838C3.97627 19.1787 3.78668 19.3262 3.685 19.5341C3.58331 19.742 3.58331 19.9822 3.58331 20.4625V22.9022Z" fill="#013743"/>
<path d="M23.7552 25.5312H17.6771C16.5725 25.5312 15.6771 26.4267 15.6771 27.5312V37.475C15.6771 37.5578 15.7442 37.625 15.8271 37.625H25.6052C25.688 37.625 25.7552 37.5578 25.7552 37.475V27.5312C25.7552 26.4267 24.8598 25.5312 23.7552 25.5312Z" fill="#013743"/>
<path d="M25.7708 25.5312H19.6927C18.5881 25.5312 17.6927 26.4267 17.6927 27.5312V37.475C17.6927 37.5578 17.7598 37.625 17.8427 37.625H27.6208C27.7037 37.625 27.7708 37.5578 27.7708 37.475V27.5312C27.7708 26.4267 26.8754 25.5312 25.7708 25.5312Z" fill="#013743"/>
</svg>
