<svg width="44" height="44" viewBox="0 0 44 44" fill="none" xmlns="http://www.w3.org/2000/svg">
<path d="M5.5 22C5.5 12.8873 12.8873 5.5 22 5.5C31.1127 5.5 38.5 12.8873 38.5 22C38.5 31.1127 31.1127 38.5 22 38.5C12.8873 38.5 5.5 31.1127 5.5 22Z" fill="#C5D8D1"/>
<circle cx="22" cy="18.3333" r="7.33333" fill="#013743"/>
<path fill-rule="evenodd" clip-rule="evenodd" d="M33.4861 33.5881C33.5428 33.6853 33.5251 33.8083 33.444 33.8864C30.4774 36.7433 26.4439 38.5 22 38.5C17.5563 38.5 13.5228 36.7433 10.5562 33.8865C10.4751 33.8084 10.4574 33.6854 10.5141 33.5882C12.6192 29.9786 16.972 27.5 22.0001 27.5C27.0283 27.5 31.381 29.9786 33.4861 33.5881Z" fill="#013743"/>
</svg>
