<svg width="22" height="74" viewBox="0 0 22 74" fill="none" xmlns="http://www.w3.org/2000/svg">
<path fill-rule="evenodd" clip-rule="evenodd" d="M10.5521 56.1039C10.7006 56.0975 10.8499 56.0943 11 56.0943C11.1501 56.0943 11.2994 56.0975 11.4479 56.1039C14.1581 55.8756 16.2895 53.5948 16.2895 50.8113C16.2895 47.8762 13.9195 45.5 11 45.5C8.08048 45.5 5.71053 47.8762 5.71053 50.8113C5.71053 53.5948 7.84188 55.8756 10.5521 56.1039ZM9.03757 56.2803C6.806 55.4734 5.21053 53.3294 5.21053 50.8113C5.21053 47.6018 7.80256 45 11 45C14.1974 45 16.7895 47.6018 16.7895 50.8113C16.7895 53.3294 15.194 55.4734 12.9624 56.2803C17.5456 57.1613 21 61.0683 21 65.7547V73H20.5V65.7547C20.5 60.8587 16.5065 56.8352 11.4576 56.6048C11.3066 56.6166 11.154 56.6226 11 56.6226C10.846 56.6226 10.6934 56.6166 10.5424 56.6048C5.49346 56.8352 1.5 60.8587 1.5 65.7547V73H1V65.7547C1 61.0683 4.45439 57.1613 9.03757 56.2803Z" fill="#145166"/>
<path d="M10.5521 56.1039L10.5101 56.6021L10.5417 56.6048L10.5733 56.6034L10.5521 56.1039ZM11.4479 56.1039L11.4267 56.6034L11.4583 56.6048L11.4899 56.6021L11.4479 56.1039ZM9.03757 56.2803L9.13196 56.7713L10.9169 56.4282L9.2076 55.8101L9.03757 56.2803ZM12.9624 56.2803L12.7924 55.8101L11.0831 56.4282L12.868 56.7713L12.9624 56.2803ZM21 73V73.5H21.5V73H21ZM20.5 73H20V73.5H20.5V73ZM11.4576 56.6048L11.4804 56.1053L11.4494 56.1039L11.4184 56.1063L11.4576 56.6048ZM10.5424 56.6048L10.5816 56.1063L10.5506 56.1039L10.5196 56.1053L10.5424 56.6048ZM1.5 73V73.5H2V73H1.5ZM1 73H0.5V73.5H1V73ZM11 55.5943C10.8428 55.5943 10.6864 55.5977 10.5308 55.6043L10.5733 56.6034C10.7147 56.5974 10.857 56.5943 11 56.5943V55.5943ZM11.4692 55.6043C11.3136 55.5977 11.1572 55.5943 11 55.5943V56.5943C11.143 56.5943 11.2853 56.5974 11.4267 56.6034L11.4692 55.6043ZM11.4899 56.6021C14.4584 56.3521 16.7895 53.8554 16.7895 50.8113H15.7895C15.7895 53.3342 13.8579 55.3991 11.406 55.6056L11.4899 56.6021ZM16.7895 50.8113C16.7895 47.6018 14.1974 45 11 45V46C13.6417 46 15.7895 48.1506 15.7895 50.8113H16.7895ZM11 45C7.80261 45 5.21053 47.6018 5.21053 50.8113H6.21053C6.21053 48.1506 8.35834 46 11 46V45ZM5.21053 50.8113C5.21053 53.8554 7.54164 56.3521 10.5101 56.6021L10.594 55.6056C8.14211 55.3991 6.21053 53.3342 6.21053 50.8113H5.21053ZM4.71053 50.8113C4.71053 53.5456 6.44334 55.8739 8.86755 56.7505L9.2076 55.8101C7.16867 55.0728 5.71053 53.1131 5.71053 50.8113H4.71053ZM11 44.5C7.52465 44.5 4.71053 47.3275 4.71053 50.8113H5.71053C5.71053 47.8762 8.08048 45.5 11 45.5V44.5ZM17.2895 50.8113C17.2895 47.3275 14.4754 44.5 11 44.5V45.5C13.9195 45.5 16.2895 47.8762 16.2895 50.8113H17.2895ZM13.1325 56.7505C15.5567 55.8739 17.2895 53.5456 17.2895 50.8113H16.2895C16.2895 53.1131 14.8313 55.0728 12.7924 55.8101L13.1325 56.7505ZM21.5 65.7547C21.5 60.8122 17.859 56.7124 13.0568 55.7893L12.868 56.7713C17.2322 57.6102 20.5 61.3244 20.5 65.7547H21.5ZM21.5 73V65.7547H20.5V73H21.5ZM20.5 73.5H21V72.5H20.5V73.5ZM20 65.7547V73H21V65.7547H20ZM11.4348 57.1042C16.2331 57.3232 20 61.142 20 65.7547H21C21 60.5754 16.78 56.3471 11.4804 56.1053L11.4348 57.1042ZM11 57.1226C11.1671 57.1226 11.3327 57.1161 11.4967 57.1032L11.4184 56.1063C11.2805 56.1171 11.1409 56.1226 11 56.1226V57.1226ZM10.5033 57.1032C10.6673 57.1161 10.8329 57.1226 11 57.1226V56.1226C10.8591 56.1226 10.7195 56.1171 10.5816 56.1063L10.5033 57.1032ZM2 65.7547C2 61.142 5.76694 57.3232 10.5652 57.1042L10.5196 56.1053C5.21998 56.3471 1 60.5754 1 65.7547H2ZM2 73V65.7547H1V73H2ZM1 73.5H1.5V72.5H1V73.5ZM0.5 65.7547V73H1.5V65.7547H0.5ZM8.94319 55.7893C4.141 56.7124 0.5 60.8122 0.5 65.7547H1.5C1.5 61.3244 4.76777 57.6102 9.13196 56.7713L8.94319 55.7893Z" fill="#145166"/>
<path fill-rule="evenodd" clip-rule="evenodd" d="M10.5521 34.1039C10.7006 34.0975 10.8499 34.0943 11 34.0943C11.1501 34.0943 11.2994 34.0975 11.4479 34.1039C14.1581 33.8756 16.2895 31.5948 16.2895 28.8113C16.2895 25.8762 13.9195 23.5 11 23.5C8.08048 23.5 5.71053 25.8762 5.71053 28.8113C5.71053 31.5948 7.84188 33.8756 10.5521 34.1039ZM9.03757 34.2803C6.806 33.4734 5.21053 31.3294 5.21053 28.8113C5.21053 25.6018 7.80256 23 11 23C14.1974 23 16.7895 25.6018 16.7895 28.8113C16.7895 31.3294 15.194 33.4734 12.9624 34.2803C17.5456 35.1613 21 39.0683 21 43.7547V51H20.5V43.7547C20.5 38.8587 16.5065 34.8352 11.4576 34.6048C11.3066 34.6166 11.154 34.6226 11 34.6226C10.846 34.6226 10.6934 34.6166 10.5424 34.6048C5.49346 34.8352 1.5 38.8587 1.5 43.7547V51H1V43.7547C1 39.0683 4.45439 35.1613 9.03757 34.2803Z" fill="#145166"/>
<path d="M10.5521 34.1039L10.5101 34.6021L10.5417 34.6048L10.5733 34.6034L10.5521 34.1039ZM11.4479 34.1039L11.4267 34.6034L11.4583 34.6048L11.4899 34.6021L11.4479 34.1039ZM9.03757 34.2803L9.13196 34.7713L10.9169 34.4282L9.2076 33.8101L9.03757 34.2803ZM12.9624 34.2803L12.7924 33.8101L11.0831 34.4282L12.868 34.7713L12.9624 34.2803ZM21 51V51.5H21.5V51H21ZM20.5 51H20V51.5H20.5V51ZM11.4576 34.6048L11.4804 34.1053L11.4494 34.1039L11.4184 34.1063L11.4576 34.6048ZM10.5424 34.6048L10.5816 34.1063L10.5506 34.1039L10.5196 34.1053L10.5424 34.6048ZM1.5 51V51.5H2V51H1.5ZM1 51H0.5V51.5H1V51ZM11 33.5943C10.8428 33.5943 10.6864 33.5977 10.5308 33.6043L10.5733 34.6034C10.7147 34.5974 10.857 34.5943 11 34.5943V33.5943ZM11.4692 33.6043C11.3136 33.5977 11.1572 33.5943 11 33.5943V34.5943C11.143 34.5943 11.2853 34.5974 11.4267 34.6034L11.4692 33.6043ZM11.4899 34.6021C14.4584 34.3521 16.7895 31.8554 16.7895 28.8113H15.7895C15.7895 31.3342 13.8579 33.3991 11.406 33.6056L11.4899 34.6021ZM16.7895 28.8113C16.7895 25.6018 14.1974 23 11 23V24C13.6417 24 15.7895 26.1506 15.7895 28.8113H16.7895ZM11 23C7.80261 23 5.21053 25.6018 5.21053 28.8113H6.21053C6.21053 26.1506 8.35834 24 11 24V23ZM5.21053 28.8113C5.21053 31.8554 7.54164 34.3521 10.5101 34.6021L10.594 33.6056C8.14211 33.3991 6.21053 31.3342 6.21053 28.8113H5.21053ZM4.71053 28.8113C4.71053 31.5456 6.44334 33.8739 8.86755 34.7505L9.2076 33.8101C7.16867 33.0728 5.71053 31.1131 5.71053 28.8113H4.71053ZM11 22.5C7.52465 22.5 4.71053 25.3275 4.71053 28.8113H5.71053C5.71053 25.8762 8.08048 23.5 11 23.5V22.5ZM17.2895 28.8113C17.2895 25.3275 14.4754 22.5 11 22.5V23.5C13.9195 23.5 16.2895 25.8762 16.2895 28.8113H17.2895ZM13.1325 34.7505C15.5567 33.8739 17.2895 31.5456 17.2895 28.8113H16.2895C16.2895 31.1131 14.8313 33.0728 12.7924 33.8101L13.1325 34.7505ZM21.5 43.7547C21.5 38.8122 17.859 34.7124 13.0568 33.7893L12.868 34.7713C17.2322 35.6102 20.5 39.3244 20.5 43.7547H21.5ZM21.5 51V43.7547H20.5V51H21.5ZM20.5 51.5H21V50.5H20.5V51.5ZM20 43.7547V51H21V43.7547H20ZM11.4348 35.1042C16.2331 35.3232 20 39.142 20 43.7547H21C21 38.5754 16.78 34.3471 11.4804 34.1053L11.4348 35.1042ZM11 35.1226C11.1671 35.1226 11.3327 35.1161 11.4967 35.1032L11.4184 34.1063C11.2805 34.1171 11.1409 34.1226 11 34.1226V35.1226ZM10.5033 35.1032C10.6673 35.1161 10.8329 35.1226 11 35.1226V34.1226C10.8591 34.1226 10.7195 34.1171 10.5816 34.1063L10.5033 35.1032ZM2 43.7547C2 39.142 5.76694 35.3232 10.5652 35.1042L10.5196 34.1053C5.21998 34.3471 1 38.5754 1 43.7547H2ZM2 51V43.7547H1V51H2ZM1 51.5H1.5V50.5H1V51.5ZM0.5 43.7547V51H1.5V43.7547H0.5ZM8.94319 33.7893C4.141 34.7124 0.5 38.8122 0.5 43.7547H1.5C1.5 39.3244 4.76777 35.6102 9.13196 34.7713L8.94319 33.7893Z" fill="#145166"/>
<path fill-rule="evenodd" clip-rule="evenodd" d="M10.5521 12.1039C10.7006 12.0975 10.8499 12.0943 11 12.0943C11.1501 12.0943 11.2994 12.0975 11.4479 12.1039C14.1581 11.8756 16.2895 9.59479 16.2895 6.81132C16.2895 3.87618 13.9195 1.5 11 1.5C8.08048 1.5 5.71053 3.87618 5.71053 6.81132C5.71053 9.59479 7.84188 11.8756 10.5521 12.1039ZM9.03757 12.2803C6.806 11.4734 5.21053 9.32936 5.21053 6.81132C5.21053 3.60182 7.80256 1 11 1C14.1974 1 16.7895 3.60182 16.7895 6.81132C16.7895 9.32936 15.194 11.4734 12.9624 12.2803C17.5456 13.1613 21 17.0683 21 21.7547V29H20.5V21.7547C20.5 16.8587 16.5065 12.8352 11.4576 12.6048C11.3066 12.6166 11.154 12.6226 11 12.6226C10.846 12.6226 10.6934 12.6166 10.5424 12.6048C5.49346 12.8352 1.5 16.8587 1.5 21.7547V29H1V21.7547C1 17.0683 4.45439 13.1613 9.03757 12.2803Z" fill="#145166"/>
<path d="M10.5521 12.1039L10.5101 12.6021L10.5417 12.6048L10.5733 12.6034L10.5521 12.1039ZM11.4479 12.1039L11.4267 12.6034L11.4583 12.6048L11.4899 12.6021L11.4479 12.1039ZM9.03757 12.2803L9.13196 12.7713L10.9169 12.4282L9.2076 11.8101L9.03757 12.2803ZM12.9624 12.2803L12.7924 11.8101L11.0831 12.4282L12.868 12.7713L12.9624 12.2803ZM21 29V29.5H21.5V29H21ZM20.5 29H20V29.5H20.5V29ZM11.4576 12.6048L11.4804 12.1053L11.4494 12.1039L11.4184 12.1063L11.4576 12.6048ZM10.5424 12.6048L10.5816 12.1063L10.5506 12.1039L10.5196 12.1053L10.5424 12.6048ZM1.5 29V29.5H2V29H1.5ZM1 29H0.5V29.5H1V29ZM11 11.5943C10.8428 11.5943 10.6864 11.5977 10.5308 11.6043L10.5733 12.6034C10.7147 12.5974 10.857 12.5943 11 12.5943V11.5943ZM11.4692 11.6043C11.3136 11.5977 11.1572 11.5943 11 11.5943V12.5943C11.143 12.5943 11.2853 12.5974 11.4267 12.6034L11.4692 11.6043ZM11.4899 12.6021C14.4584 12.3521 16.7895 9.85535 16.7895 6.81132H15.7895C15.7895 9.33423 13.8579 11.3991 11.406 11.6056L11.4899 12.6021ZM16.7895 6.81132C16.7895 3.60177 14.1974 1 11 1V2C13.6417 2 15.7895 4.1506 15.7895 6.81132H16.7895ZM11 1C7.80261 1 5.21053 3.60177 5.21053 6.81132H6.21053C6.21053 4.1506 8.35834 2 11 2V1ZM5.21053 6.81132C5.21053 9.85535 7.54164 12.3521 10.5101 12.6021L10.594 11.6056C8.14211 11.3991 6.21053 9.33423 6.21053 6.81132H5.21053ZM4.71053 6.81132C4.71053 9.54562 6.44334 11.8739 8.86755 12.7505L9.2076 11.8101C7.16867 11.0728 5.71053 9.1131 5.71053 6.81132H4.71053ZM11 0.5C7.52465 0.5 4.71053 3.32745 4.71053 6.81132H5.71053C5.71053 3.87618 8.08048 1.5 11 1.5V0.5ZM17.2895 6.81132C17.2895 3.32745 14.4754 0.5 11 0.5V1.5C13.9195 1.5 16.2895 3.87618 16.2895 6.81132H17.2895ZM13.1325 12.7505C15.5567 11.8739 17.2895 9.54562 17.2895 6.81132H16.2895C16.2895 9.1131 14.8313 11.0728 12.7924 11.8101L13.1325 12.7505ZM21.5 21.7547C21.5 16.8122 17.859 12.7124 13.0568 11.7893L12.868 12.7713C17.2322 13.6102 20.5 17.3244 20.5 21.7547H21.5ZM21.5 29V21.7547H20.5V29H21.5ZM20.5 29.5H21V28.5H20.5V29.5ZM20 21.7547V29H21V21.7547H20ZM11.4348 13.1042C16.2331 13.3232 20 17.142 20 21.7547H21C21 16.5754 16.78 12.3471 11.4804 12.1053L11.4348 13.1042ZM11 13.1226C11.1671 13.1226 11.3327 13.1161 11.4967 13.1032L11.4184 12.1063C11.2805 12.1171 11.1409 12.1226 11 12.1226V13.1226ZM10.5033 13.1032C10.6673 13.1161 10.8329 13.1226 11 13.1226V12.1226C10.8591 12.1226 10.7195 12.1171 10.5816 12.1063L10.5033 13.1032ZM2 21.7547C2 17.142 5.76694 13.3232 10.5652 13.1042L10.5196 12.1053C5.21998 12.3471 1 16.5754 1 21.7547H2ZM2 29V21.7547H1V29H2ZM1 29.5H1.5V28.5H1V29.5ZM0.5 21.7547V29H1.5V21.7547H0.5ZM8.94319 11.7893C4.141 12.7124 0.5 16.8122 0.5 21.7547H1.5C1.5 17.3244 4.76777 13.6102 9.13196 12.7713L8.94319 11.7893Z" fill="#145166"/>
</svg>
