<svg width="18" height="43" viewBox="0 0 18 43" fill="none" xmlns="http://www.w3.org/2000/svg">
<path fill-rule="evenodd" clip-rule="evenodd" d="M8.55206 11.465L8.55205 11.4648L8.55204 11.465L8.55206 11.465ZM9.44796 11.465L9.44795 11.4648L9.44794 11.465L9.44796 11.465ZM5.6178 11.4938C3.8695 10.3862 2.71053 8.44507 2.71053 6.23569C2.71053 2.79357 5.52465 0 9 0C12.4754 0 15.2895 2.79357 15.2895 6.23569C15.2895 8.44508 14.1305 10.3862 12.3822 11.4938C14.7433 12.2617 16.7305 13.8124 18 15.8259V16.8348V18.0959V21C18 16.4521 14.2488 12.6853 9.46487 12.4546C9.31128 12.4657 9.1563 12.4713 9 12.4713C8.8437 12.4713 8.68872 12.4657 8.53513 12.4546C3.75121 12.6853 0 16.4521 0 21V18.0959V16.8348V15.8259C1.26949 13.8123 3.25674 12.2617 5.6178 11.4938ZM8.5424 11.9597L8.54242 11.9601L8.54245 11.9597L8.5424 11.9597ZM9.45755 11.9597L9.45758 11.9601L9.4576 11.9597L9.45755 11.9597ZM10.9624 11.6391C10.9624 11.6391 10.9624 11.6391 10.9624 11.6391L10.9624 11.639C10.9624 11.639 10.9624 11.639 10.9624 11.639L10.9624 11.639L10.9624 11.6391ZM9.43628 10.9699C11.8738 10.7517 13.7895 8.7181 13.7895 6.23569C13.7895 3.60685 11.6417 1.48203 9 1.48203C6.35834 1.48203 4.21053 3.60685 4.21053 6.23569C4.21053 8.7181 6.12623 10.7517 8.56372 10.9699C8.70845 10.9643 8.85388 10.9614 9 10.9614C9.14612 10.9614 9.29155 10.9643 9.43628 10.9699Z" fill="#145166"/>
<path fill-rule="evenodd" clip-rule="evenodd" d="M8.55206 33.465L8.55205 33.4648L8.55204 33.465L8.55206 33.465ZM9.44796 33.465L9.44795 33.4648L9.44794 33.465L9.44796 33.465ZM5.6178 33.4938C3.8695 32.3862 2.71053 30.4451 2.71053 28.2357C2.71053 24.7936 5.52465 22 9 22C12.4754 22 15.2895 24.7936 15.2895 28.2357C15.2895 30.4451 14.1305 32.3862 12.3822 33.4938C14.7433 34.2617 16.7305 35.8124 18 37.8259V38.8348V40.0959V43C18 38.4521 14.2488 34.6853 9.46487 34.4546C9.31128 34.4657 9.1563 34.4713 9 34.4713C8.8437 34.4713 8.68872 34.4657 8.53513 34.4546C3.75121 34.6853 0 38.4521 0 43V40.0959V38.8348V37.8259C1.26949 35.8123 3.25674 34.2617 5.6178 33.4938ZM8.5424 33.9597L8.54242 33.9601L8.54245 33.9597L8.5424 33.9597ZM9.45755 33.9597L9.45758 33.9601L9.4576 33.9597L9.45755 33.9597ZM10.9624 33.6391C10.9624 33.6391 10.9624 33.6391 10.9624 33.6391L10.9624 33.639C10.9624 33.639 10.9624 33.639 10.9624 33.639L10.9624 33.639L10.9624 33.6391ZM9.43628 32.9699C11.8738 32.7517 13.7895 30.7181 13.7895 28.2357C13.7895 25.6069 11.6417 23.482 9 23.482C6.35834 23.482 4.21053 25.6069 4.21053 28.2357C4.21053 30.7181 6.12623 32.7517 8.56372 32.9699C8.70845 32.9643 8.85388 32.9614 9 32.9614C9.14612 32.9614 9.29155 32.9643 9.43628 32.9699Z" fill="#145166"/>
</svg>
