<svg width="62" height="18" viewBox="0 0 62 18" fill="none" xmlns="http://www.w3.org/2000/svg">
<path d="M0 1H62C62 10.3888 54.3888 18 45 18H17C7.61116 18 0 10.3888 0 1Z" fill="#032D36"/>
<path d="M29.375 9.91659L26.5417 7.08325L23.7083 9.91659" stroke="#19647E" stroke-width="2"/>
<path d="M29.0209 4.20588C29.9661 3.66013 31.0651 3.44154 32.1472 3.58401C33.2294 3.72647 34.2343 4.22204 35.0061 4.99385C35.7779 5.76565 36.2735 6.77057 36.416 7.85273C36.5584 8.93489 36.3398 10.0338 35.7941 10.9791C35.2483 11.9244 34.4059 12.6631 33.3975 13.0808C32.3891 13.4985 31.271 13.5718 30.2167 13.2893C29.1624 13.0068 28.2308 12.3843 27.5663 11.5184C26.9019 10.6524 26.5417 9.59142 26.5417 8.49992" stroke="#19647E" stroke-width="2" stroke-linecap="round"/>
</svg>
